# xmcd
#
# Track frame offsets:
#	150
#	15527
#	26739
#	43223
#	54362
#	73674
#	91628
#	107611
#	113734
#	122666
#	133266
#
# Disc length: 1900 seconds
# Revision: 2
# Processed by: cddbd v1.5.2PL0 Copyright (c) Steve Scherf et al.
# Submitted via: dBpowerAMP V12.0
#
DISCID=8e076a0b
DTITLE=Tim May - Find My Way Back
DYEAR=2005
DGENRE=Country
TTITLE0=The Sun Won't Shine On Virginia
TTITLE1=Bill Cheatham
TTITLE2=Your Worries and Troubles Are Mine
TTITLE3=The Streets of Laredo
TTITLE4=I've Got a Feeling
TTITLE5=Miss Nari
TTITLE6=Find My Way Back
TTITLE7=Paddy on the Turnpike
TTITLE8=Sittin' on Top of the World
TTITLE9=Limehouse Blues
TTITLE10=Down by the Sally Garden
EXTD=
EXTT0=
EXTT1=
EXTT2=
EXTT3=
EXTT4=
EXTT5=
EXTT6=
EXTT7=
EXTT8=
EXTT9=
EXTT10=
PLAYORDER=
